<svg xmlns="http://www.w3.org/2000/svg" height="179.067" width="174.497"><path d="M42.626 107.918c2.468 1.32 4.864-.089 6.788-1.222 1.675-.986 2.742-1.548 3.441-1.054.313.222.371.492.344 1.6-.031 1.27-.089 3.635 2.819 4.442a5.366 5.366 0 002.986-.268 5.215 5.215 0 011.24-.276 1.2 1.2 0 01.23.511 1.485 1.485 0 00.864.955 182.627 182.627 0 00-2.065 20.832 4.121 4.121 0 00-1.927-1.237 4.517 4.517 0 00-3.792.809 5.316 5.316 0 01-.922.48c-1.866.627-2.289.434-2.3.432a5.644 5.644 0 01-.53-1.573 20.2 20.2 0 00-.821-2.661 5.079 5.079 0 00-2.691-3.145c-1.556-.544-2.964.258-4.327 1.032a8.966 8.966 0 01-2.807 1.206 2.714 2.714 0 01-2.447-.625 5.509 5.509 0 01-1.3-4.454 1.5 1.5 0 00-.075-.614 162.85 162.85 0 014.655-18.644 6.1 6.1 0 002.637 3.474z" fill="#a57f53"/><path d="M34.673 130.36a5.687 5.687 0 004.98 1.382 11.589 11.589 0 003.794-1.557c.593-.337 1.585-.907 1.855-.808 0 0 .381.145.9 1.43a17.528 17.528 0 01.7 2.28c.358 1.418.7 2.757 1.993 3.464 1.084.592 2.49.527 4.7-.215a7.781 7.781 0 001.5-.746c.726-.432 1.076-.61 1.4-.514a1.2 1.2 0 01.4.2 1.5 1.5 0 002.218 1.858c.02-.014.033-.034.053-.049a207.537 207.537 0 00-.074 5.316 93.449 93.449 0 002.143 15.534 7.546 7.546 0 01-.861-.845 6.406 6.406 0 00-2.318-1.837c-2.751-1.062-4.711.707-6.144 2-1.587 1.429-2.355 1.962-3.565 1.455-.832-.347-1.283-1.963-1.681-3.389-.531-1.9-1.133-4.059-3.045-4.752-1.856-.673-3.853.48-5.194 1.4a14.667 14.667 0 00-1.6 1.348c-1.782 1.653-2.457 2.029-3.5 1.325-.43-.291-.632-1.151-.827-1.981a10.626 10.626 0 00-.526-1.727c.271-5.082.871-12.55 2.2-21.113a6.155 6.155 0 00.499.541z" fill="#a57f53"/><path d="M65.277 171.546c-.127.752-2.27 2.285-15.2 4.1l-.132.018c-3.648.512-12.575 1.179-16.66-3.656-2.048-2.425-1.832-6.989-1.642-11.015.053-1.113.1-2.165.1-3.141v-.655c3.12 2.018 5.612-.288 7.107-1.676a12.487 12.487 0 011.258-1.076c1.8-1.242 2.408-1.078 2.47-1.053.46.166.893 1.714 1.179 2.738.552 1.979 1.24 4.443 3.414 5.351a5.179 5.179 0 002.009.428c2.028 0 3.541-1.361 4.719-2.422 1.441-1.3 2.121-1.789 3.057-1.427a4.57 4.57 0 011.186 1.065c.784.855 1.744 1.942 3.2 1.9a2.78 2.78 0 00.532-.073c1.068 4.628 2.275 8.667 3.3 10.382a.576.576 0 01.103.212z" fill="#a57f53"/><path d="M59.468 30.786a30.63 30.63 0 01-3.75-.734c2.515-1.28 5.187-3.777 7.99-7.47a1.5 1.5 0 00-1.606-2.349c-7.245 2.063-16.5 2.031-23.4.828a20.07 20.07 0 006.239-5.848 1.5 1.5 0 00-1.549-2.333c-4.725 1.052-15.377 2.445-20.83-4.643 7.357 1.638 15.3-.4 23.028-2.373 6.352-1.626 12.919-3.3 18.839-2.792a39.542 39.542 0 0114.313 4.842c4.14 2.394 8.95 6.463 8.723 12.331a25.139 25.139 0 00-5.426 13.936c-2.5-.685-5.2-1.274-7.934-1.817l-.543-.108a56.918 56.918 0 00-11.379-.972 35.895 35.895 0 00-2.715-.498zm93.36 38.45a210.481 210.481 0 00-1.868-1.838 1.5 1.5 0 00-2.5.737l-.156.661a30.012 30.012 0 00-.974 5.743l-1.02-.989c-5.888-5.7-10.974-10.623-13.6-19.484a1.5 1.5 0 00-2.554-.576c-1.366 1.52-7.41 1.365-11.57-1.234-.217-.153-.439-.3-.659-.451-.059-.044-.122-.081-.18-.125a1.389 1.389 0 00-.125-.077 52.536 52.536 0 00-6.058-3.518 1.5 1.5 0 10-1.328 2.69 49.327 49.327 0 016.03 3.529c.185.132.37.263.563.387a44.363 44.363 0 0117.343 24.752c1.359 4.851.219 8.752-1.36 14.152a99.5 99.5 0 00-2.829 11.6 50.52 50.52 0 01-2.271-8.925 46.9 46.9 0 00-2.472-9.4 1.5 1.5 0 00-2.108-.734 20 20 0 00-6.553 6.4c-2.757-5.83-3.018-16.111-1.661-21.312a1.5 1.5 0 00-2.23-1.661 21.389 21.389 0 00-8.22 10.291c-2.264-3.8-2.9-8.144-3.571-12.683a50.189 50.189 0 00-2.23-10.153 1.5 1.5 0 00-2.332-.661c-2.9 2.271-5.088 7.268-5.447 11.672-5.4-5.134-8-9.747-8.661-15.209 1.042-.576 2.08-1.145 3.11-1.689a1.5 1.5 0 10-1.4-2.653c-1.614.852-3.241 1.757-4.887 2.672-3.119 1.734-6.278 3.491-9.52 4.985-.012 0-.023 0-.035.01-.172.07-.35.152-.533.243a39.839 39.839 0 01-12.457 3.595 22.364 22.364 0 002.542-5.822l.218-.666a1.5 1.5 0 00-1.759-1.933c-3.05.7-6.148 2.55-9.144 4.339a47.406 47.406 0 01-6.472 3.44 39.414 39.414 0 01-12.174 2.574c2.367-2.4 3.791-5.407 5.359-8.715l.1-.217a1.5 1.5 0 00-2.027-1.984c-7.636 3.826-17.711 8.875-27.1 9.2a105.073 105.073 0 008.656-7.263c7.161-6.48 13.926-12.6 30.889-16.638a74.764 74.764 0 0116.3-2.023c.095.024.2.045.287.071a1.5 1.5 0 00.407.056 1.471 1.471 0 00.607-.147 52.657 52.657 0 019.781.936l.546.108c4.313.855 15.769 3.127 17.73 6.954a1.5 1.5 0 002.67-1.369c-1.308-2.551-4.637-4.381-8.9-5.811 0-15.812 21.23-28.771 36.947-31.207 9.215-1.429 13.561.58 21.28 5.5 3.75 2.392 10.191 5.594 16.241 4.232a14.667 14.667 0 01-21.656.4 1.5 1.5 0 00-2.6 1.259c.11.6.2 1.229.294 1.867.43 2.953.939 6.454 3.5 8.55-5.581 1.108-13.338-4.261-18.257-7.664-.748-.518-1.444-1-2.077-1.422a1.5 1.5 0 00-2.254 1.729 22.228 22.228 0 01.606 2.326 12.4 12.4 0 002.015 5.1 28.854 28.854 0 01-15.946.967 1.5 1.5 0 00-1.554 2.273 9.893 9.893 0 006.2 4.209c-3.15 2.278-6.233 4.306-10.057 4.889a1.5 1.5 0 00.224 2.982 1.47 1.47 0 00.228-.017 21.536 21.536 0 008.38-3.381c18.519.051 32.647 1.206 45.33 14.6 2.345 2.478 4.4 6.561 6.576 10.882 2.979 5.917 6.037 11.993 10.421 15.247-6.218.562-11.202-4.366-16.034-9.163z" fill="#abb833"/><path d="M51.242 79.793a6.239 6.239 0 00.321 3.915 4.037 4.037 0 002.5 2.237c1.706.437 3.28-.6 4.67-1.523a5.932 5.932 0 012.425-1.189c.956.063.974.064.878 2.012a12.875 12.875 0 00.06 2.647c.136.879 1.168 4.543 3.4 5.057a2.453 2.453 0 00.266.042 149.884 149.884 0 00-3.76 15.745 2.762 2.762 0 00-.294-.21 4.481 4.481 0 00-3.544.012 4.112 4.112 0 01-1.345.258c-.617-.172-.654-.182-.622-1.479a4.377 4.377 0 00-1.609-4.122c-2.331-1.654-4.752-.229-6.7.916-1.784 1.051-2.934 1.653-3.851 1.162-1.633-.874-2.168-5.542-1.591-7.874a93.733 93.733 0 018.796-17.606z" fill="#a57f53"/><path d="M71.115 78.242q-2.344 5.4-4.229 11.167a1.493 1.493 0 00-.894.313 6.766 6.766 0 01-.927-2.289 10.406 10.406 0 01-.029-2.04c.085-1.71.242-4.894-3.676-5.154-1.586-.109-3.013.844-4.277 1.681-.738.487-1.848 1.22-2.267 1.119-.116-.03-.341-.237-.595-.722-.422-.8.166-3.029.554-4.5a16.389 16.389 0 00.639-3.179 1.486 1.486 0 00-.075-.522 107.233 107.233 0 0110.466-11.614 5.294 5.294 0 011.035-.3c-.059.312-.123.635-.183.933-.572 2.864-.868 4.671.2 5.7 1.147 1.1 2.976.692 4.912.257a14.894 14.894 0 012.734-.445 8.617 8.617 0 01.5 1.653c-1.443 2.686-2.749 5.317-3.888 7.942z" fill="#a57f53"/><path d="M79.039 63.362c-.382.624-.8 1.3-1.279 2.1-.278.461-.529.911-.8 1.367-.038-.076-.068-.152-.107-.228a1.5 1.5 0 00-.851-.731c-1.43-.484-3.19-.089-4.891.292a18.448 18.448 0 01-1.973.372 25.993 25.993 0 01.457-2.815 14.309 14.309 0 00.43-3.2 1.484 1.484 0 00-.5-1.012 8.252 8.252 0 01.83-.457c3.1-1.406 6.1-3.041 9.069-4.687a23.481 23.481 0 001.663 5.536 95.814 95.814 0 01-2.048 3.463z" fill="#a57f53"/><g fill="none" stroke="#3e4147" stroke-linecap="round" stroke-linejoin="round" stroke-width="3"><path d="M92.582 41.572c-2.376-4.635-14.39-6.867-19.318-7.85-8.887-1.773-19.334-.948-28.021 1.119C19.352 41.003 16.582 52.029 1.5 61.473c10.869 1.543 23.064-4.5 32.314-9.132-2.3 4.856-4.143 8.858-9 11.265 6.292-.122 11.675-.52 17.616-2.868 5.14-2.032 10.45-6.576 15.4-7.713-1.061 3.2-1.944 6.451-5.018 8.579 11.91.382 22.1-6.673 31.813-11.8"/><path d="M80.629 52.024c.646 8.022 5.044 13.675 11.952 19.542-1.064-4.336 1.323-11.407 4.671-14.027 3.19 8.64 1.348 18.651 8.193 26.144-.531-4.493 4.3-10.587 8.014-12.836-1.7 6.51-1.024 19.22 3.157 24.669a19.188 19.188 0 017.233-8.071c2.927 6.99 2.212 15.416 6.946 22.649 1.8-16.169 7.39-21.868 4.815-31.061a46.2 46.2 0 00-24.717-29.608M83.532 36.171c-.99-17.235 21.406-31.181 38.2-33.784 9.893-1.534 14.613.807 22.315 5.721 5.5 3.508 13.222 6.462 19.1 2.231-4.209 10.855-19.135 13-26.45 4.651.754 4.1.652 9.475 5.818 10.748-7.114 5.309-18.723-3.928-24.667-7.9 1.036 3.061.782 6.173 3.833 8.4-5.925 2.924-12.434 3.2-18.864 1.955 1.941 3.077 5.615 3.935 8.861 4.013-4.381 3.1-8.316 6.537-13.764 7.368"/><path d="M88.947 20.746C89.92 8.063 70.884 2.125 64.555 1.573c-14.6-1.274-31.511 9.9-45.2 4.065 4.075 9.752 14.754 10.843 24.362 8.7-2.577 3.629-6.526 6.764-10.563 6.9 7.4 2.487 20.165 3.049 29.362.429-2.382 3.139-6.761 8.216-11.031 7.869 3.086 2.683 7.771 2.431 11.1 3.366M106.091 36.172c17.948.033 33.39.856 46.849 15.074 6.544 6.912 10.539 24.711 20.057 27.64-9.822 4.069-16.813-4.358-23.079-10.414-.841 3.593-1.723 6.741-.489 10.348q.378.348.052-.037c-7.767-7.934-14.852-12.962-18.216-24.3-2.217 2.469-9.989 1.766-14.434-1.619M70.053 57.535c-4.836 1.971-14.947 13.916-19.141 20.05-18 26.32-20.661 67.723-20.663 80.263 0 4.582-1.162 11.506 1.893 15.123 4.127 4.885 12.347 4.969 18.014 4.175 6.36-.892 18.709-2.591 16.317-6.583s-5.891-21.775-5.891-28.158c0-21.6 3.264-43.646 11.909-63.565a106.214 106.214 0 016.554-12.6c1.584-2.633 2.46-3.96 3.727-6.268"/><path d="M64.915 61.238a7.545 7.545 0 013.617-.616c.1 1.54-1.5 6.3-.632 7.132 1.1 1.062 5.512-1.175 7.625-.459a10.253 10.253 0 011.056 3.177 8.713 8.713 0 000-.9M53.915 74.572c-.1 2.15-2.089 6.4-1.023 8.44 2.174 4.155 5.528-1.464 8.369-1.276 3.432.227 1.9 3.19 2.321 5.927.236 1.525 1.9 5.308 3.333 3.242M41.249 96.238c-1.026 2.441-.686 8.876 2.084 10.357 3.471 1.856 7.324-4.35 10.389-2.177 2.258 1.6-.572 4.915 2.7 5.823 1.824.507 4.579-2.19 5.5 1M33.915 123.572c-.329 3.708 1.585 7.345 5.491 6.691 3.732-.625 6.164-5.048 8.185-.014 1.506 3.751.413 6.381 5.519 4.665 1.256-.422 2.331-1.717 3.805-1.275 1.382.414 2.058 1.764 1.334 2.266M30.249 150.905c.992 1.243.656 3.911 2.235 4.98 2.878 1.948 4.831-1.335 6.783-2.679 7.177-4.942 4.615 5.267 8.492 6.887 4.285 1.79 5.851-4.94 9.748-3.437 1.94.749 3.027 4.635 5.408 1.916"/></g></svg>
